<?xml version="1.0" encoding="UTF-8" standalone="no"?>
<!-- Created with Inkscape (http://www.inkscape.org/) -->

<svg
   width="184.41602mm"
   height="137.12256mm"
   viewBox="0 0 183.62566 137.12256"
   version="1.1"
   id="svg8"
   inkscape:version="1.1.2 (0a00cf5339, 2022-02-04)"
   sodipodi:docname="swccg_holotable.svg"
   inkscape:export-filename="/Users/devon/code/swccgpc/website/swccgpc_bw.png"
   inkscape:export-xdpi="150"
   inkscape:export-ydpi="150"
   xmlns:inkscape="http://www.inkscape.org/namespaces/inkscape"
   xmlns:sodipodi="http://sodipodi.sourceforge.net/DTD/sodipodi-0.dtd"
   xmlns="http://www.w3.org/2000/svg"
   xmlns:svg="http://www.w3.org/2000/svg"
   xmlns:rdf="http://www.w3.org/1999/02/22-rdf-syntax-ns#"
   xmlns:cc="http://creativecommons.org/ns#"
   xmlns:dc="http://purl.org/dc/elements/1.1/">
  <defs
     id="defs2" />
  <sodipodi:namedview
     id="base"
     pagecolor="#ffffff"
     bordercolor="#666666"
     borderopacity="1.0"
     inkscape:pageopacity="0.0"
     inkscape:pageshadow="2"
     inkscape:zoom="0.24748737"
     inkscape:cx="3030.4576"
     inkscape:cy="618.21336"
     inkscape:document-units="mm"
     inkscape:current-layer="layer1"
     showgrid="false"
     viewbox-width="209.1"
     fit-margin-top="0"
     fit-margin-left="0"
     fit-margin-right="0"
     fit-margin-bottom="0"
     inkscape:window-width="1588"
     inkscape:window-height="843"
     inkscape:window-x="0"
     inkscape:window-y="25"
     inkscape:window-maximized="1"
     inkscape:pagecheckerboard="0"
     inkscape:snap-global="false" />
  <metadata
     id="metadata5">
    <rdf:RDF>
      <cc:Work
         rdf:about="">
        <dc:format>image/svg+xml</dc:format>
        <dc:type
           rdf:resource="http://purl.org/dc/dcmitype/StillImage" />
      </cc:Work>
    </rdf:RDF>
  </metadata>
  <g
     inkscape:label="Layer 1"
     inkscape:groupmode="layer"
     id="layer1"
     transform="translate(-14.298246,-11.823414)">
    <rect
       style="fill:#000000;fill-opacity:1;stroke:#5d0000;stroke-width:9.01539"
       id="rect7601"
       width="1267.2313"
       height="844.14764"
       x="-221.28864"
       y="-96.743454" />
    <path
       id="rect1670"
       style="fill:#e19a1b;fill-opacity:1;stroke:none;stroke-width:3.02362;stroke-linecap:square;stroke-linejoin:miter;stroke-miterlimit:4;stroke-dasharray:none;stroke-opacity:1;paint-order:markers fill stroke"
       d="M -0.01953125 0 L -0.01953125 462.65039 L 696.98633 462.65039 L 696.98633 0 L -0.01953125 0 z M 16.142578 12 L 682.98633 12 L 682.98633 380.70508 L 16.142578 380.70508 L 16.142578 12 z "
       transform="matrix(0.26458334,0,0,0.26458334,13.903064,11.823414)" />
    <g
       aria-label="/"
       style="font-style:normal;font-variant:normal;font-weight:normal;font-stretch:normal;font-size:112.08106232px;line-height:1.25;font-family:'Star Jedi Logo DoubleLine1';-inkscape-font-specification:'Star Jedi Logo DoubleLine1';letter-spacing:0px;word-spacing:0px;fill:#e19a1b;fill-opacity:1;stroke:none;stroke-width:2.80202651"
       id="text1417">
      <path
         d="m 195.86887,65.749495 v 11.000144 h -9.96033 q -7.2787,-0.492544 -2.18908,3.611987 9.24887,7.278702 9.08469,14.06486 -0.16418,6.786154 -9.08469,8.154334 H 145.30104 L 132.22127,90.376682 V 102.58082 H 117.28078 V 65.749495 h 26.98045 q 4.92544,0.38309 8.09961,2.353265 3.2289,1.970175 4.6518,5.199073 1.14927,4.87071 0.10945,7.607064 -1.03981,2.681627 -3.61198,4.487621 -2.57218,1.751266 -7.33343,2.681627 l 3.11944,3.611987 h 21.17938 q 8.15434,0.328362 2.07963,-4.049804 -10.01505,-8.263789 -8.53742,-15.049947 1.53236,-6.840886 9.41305,-6.840886 z M 98.454663,24.211641 V 34.992876 H 85.374891 V 60.878785 H 71.912029 V 34.992876 H 55.712813 q -7.388156,-0.437817 -2.24381,3.666714 9.303604,7.278702 9.084695,14.119587 -0.164181,6.786158 -9.084695,8.099608 H 14.174958 V 49.933369 h 26.050091 q 8.099608,0.328362 2.024902,-3.995077 -9.905602,-8.154335 -8.42797,-14.940493 1.532358,-6.786158 9.35833,-6.786158 z M 68.792585,102.58082 82.419629,65.749495 h 20.522651 l 13.7365,36.831325 H 101.08156 L 98.454663,95.904117 H 86.250524 l -2.6269,6.676703 z M 92.872501,74.232193 86.852522,88.899051 h 11.43796 z m 39.348769,0.492544 v 6.676704 h 10.45288 q 0.76617,0 1.75126,-0.492544 0.98509,-0.547271 1.03982,-2.791081 -0.16419,-2.079629 -1.14927,-2.736354 -0.98509,-0.656725 -1.69654,-0.656725 z M 28.732362,65.749495 36.011064,81.620349 39.841959,65.749495 h 13.51759 L 42.906676,102.58082 H 29.498541 L 14.120231,65.749495 Z m 24.627187,0 5.746343,15.870854 5.965252,-15.870854 H 79.628548 L 66.001504,102.58082 H 52.593369 L 47.394297,86.983603 51.717736,71.441112 Z m 39.129863,-4.87071 13.627038,-36.667144 h 20.52266 l 13.79122,36.667144 h -15.65194 l -2.57217,-6.621977 h -12.25887 l -2.6269,6.621977 z m 23.806278,-28.184447 -5.96525,14.612131 h 11.38323 z m 26.59736,28.184447 V 24.211641 h 26.871 q 5.03489,0.437816 8.20906,2.298537 3.17417,1.860721 4.6518,5.089619 1.204,4.980164 0.16419,7.607064 -1.03982,2.6269 -3.61199,4.432894 -2.57217,1.805993 -7.33343,2.791081 l 3.06472,3.502533 h 20.96047 V 60.878785 H 170.96805 L 157.88827,48.7841 v 12.094685 z m 14.72159,-27.801357 v 6.731431 h 10.45287 q 0.76618,0 1.69654,-0.492544 0.98509,-0.547271 1.09454,-2.736354 -0.10945,-2.189083 -1.14927,-2.845808 -0.98508,-0.656725 -1.69654,-0.656725 z"
         style="fill:#e19a1b;stroke-width:2.80202651;fill-opacity:1"
         id="path923"
         inkscape:connector-curvature="0" />
    </g>
    <g
       aria-label="CUSTOMIZABLE CARD GAME"
       transform="scale(1.0290606,0.97176006)"
       style="font-style:normal;font-variant:normal;font-weight:normal;font-stretch:normal;font-size:18.83829308px;line-height:1.25;font-family:'Star Jedi Logo DoubleLine1';-inkscape-font-specification:'Star Jedi Logo DoubleLine1';letter-spacing:0px;word-spacing:0px;fill:#000000;fill-opacity:1;stroke:none;stroke-width:0.47095734"
       id="text1676">
      <path
         d="m 25.842463,120.36032 v 1.7201 q -0.735871,-0.35873 -1.232584,-0.35873 -0.68068,0 -1.168195,0.34034 -0.487514,0.33114 -0.809458,1.03022 -0.312745,0.69907 -0.469117,1.77528 -0.147174,1.06702 -0.147174,2.52956 0,5.26148 2.695127,5.26148 0.469117,0 1.131401,-0.29435 v 1.75689 q -0.689879,0.38633 -1.545329,0.38633 -4.314043,0 -4.314043,-7.04596 0,-3.80813 1.048616,-5.66621 1.057815,-1.85807 3.228634,-1.85807 0.800259,0 1.582122,0.42312 z"
         style="font-style:normal;font-variant:normal;font-weight:500;font-stretch:condensed;font-family:Futura;-inkscape-font-specification:'Futura Medium Condensed';fill:#000000;fill-opacity:1;stroke-width:0.47095734"
         id="path882"
         inkscape:connector-curvature="0" />
      <path
         d="m 27.442982,120.13037 h 1.87647 v 10.03543 q 0,1.53613 0.275952,2.04205 0.28515,0.50591 1.122203,0.50591 0.837053,0 1.103806,-0.44153 0.275952,-0.45072 0.275952,-1.83047 v -10.31139 h 1.87647 v 10.31139 q 0,2.31799 -0.708275,3.13664 -0.846252,0.92904 -2.584747,0.92904 -1.913264,0 -2.695127,-1.19579 -0.542704,-0.81865 -0.542704,-3.14585 z"
         style="font-style:normal;font-variant:normal;font-weight:500;font-stretch:condensed;font-family:Futura;-inkscape-font-specification:'Futura Medium Condensed';fill:#000000;fill-opacity:1;stroke-width:0.47095734"
         id="path884"
         inkscape:connector-curvature="0" />
      <path
         d="m 40.90022,120.42471 v 1.86728 q -0.873847,-0.62549 -1.572924,-0.62549 -0.754268,0 -1.232584,0.5335 -0.478316,0.50591 -0.478316,1.35216 0,0.74507 0.34034,1.27858 0.17477,0.28515 0.5703,0.73587 0.404729,0.45072 1.039418,1.08541 1.168195,1.18659 1.59132,2.05124 0.423126,0.83705 0.423126,2.05124 0,1.64651 -0.929037,2.71352 -0.929037,1.03942 -2.382382,1.03942 -1.223385,0 -2.088033,-0.67148 v -1.89487 q 1.021021,0.74507 1.858074,0.74507 0.781862,0 1.223385,-0.51511 0.441522,-0.52431 0.441522,-1.41655 0,-0.77266 -0.34034,-1.38896 -0.174769,-0.29434 -0.487514,-0.67148 -0.312745,-0.38633 -0.781863,-0.85545 -0.726672,-0.71747 -1.204988,-1.26938 -0.478316,-0.5519 -0.708276,-0.96583 -0.441523,-0.80945 -0.441523,-2.04204 0,-1.6649 0.864649,-2.63993 0.873846,-0.98423 2.345588,-0.98423 1.021021,0 1.950058,0.48751 z"
         style="font-style:normal;font-variant:normal;font-weight:500;font-stretch:condensed;font-family:Futura;-inkscape-font-specification:'Futura Medium Condensed';fill:#000000;fill-opacity:1;stroke-width:0.47095734"
         id="path886"
         inkscape:connector-curvature="0" />
      <path
         d="m 42.279977,120.13037 h 6.227307 v 1.6741 H 46.36406 v 12.5282 h -1.876471 v -12.5282 h -2.207612 z"
         style="font-style:normal;font-variant:normal;font-weight:500;font-stretch:condensed;font-family:Futura;-inkscape-font-specification:'Futura Medium Condensed';fill:#000000;fill-opacity:1;stroke-width:0.47095734"
         id="path888"
         inkscape:connector-curvature="0" />
      <path
         d="m 56.813427,127.58106 q 0,3.76214 -0.837053,5.34426 -0.837053,1.58212 -2.805508,1.58212 -2.069636,0 -2.915888,-1.7017 -0.837053,-1.66491 -0.837053,-5.91456 0,-3.78974 0.827855,-5.36266 0.837053,-1.58212 2.833102,-1.58212 1.784487,0 2.649135,1.22338 0.5703,0.81866 0.827855,2.32719 0.257555,1.39816 0.257555,4.08409 z m -2.005248,0.20236 q 0,-3.68855 -0.331142,-4.89354 -0.331142,-1.21419 -1.352163,-1.21419 -1.02102,0 -1.361361,1.11301 -0.331142,1.1222 -0.331142,4.50721 0,3.11825 0.349539,4.32324 0.358737,1.1406 1.342964,1.1406 0.965831,0 1.324568,-1.06701 0.358737,-1.05782 0.358737,-3.90932 z"
         style="font-style:normal;font-variant:normal;font-weight:500;font-stretch:condensed;font-family:Futura;-inkscape-font-specification:'Futura Medium Condensed';fill:#000000;fill-opacity:1;stroke-width:0.47095734"
         id="path890"
         inkscape:connector-curvature="0" />
      <path
         d="m 59.388973,120.13037 h 1.637312 l 1.250981,5.79498 q 0.229959,1.08541 0.413927,2.18002 0.193166,1.0854 0.349539,2.28119 0.0184,-0.15637 0.02759,-0.23915 0.0092,-0.092 0.0184,-0.12878 l 0.266753,-1.62811 0.239158,-1.54533 0.211563,-1.02102 1.113004,-5.6938 h 1.65571 l 1.30617,14.2023 h -1.830478 l -0.321944,-4.81995 q -0.0184,-0.36794 -0.03679,-0.63469 -0.0092,-0.26675 -0.0092,-0.44152 l -0.08279,-1.90407 -0.04599,-1.74769 q 0,-0.0184 -0.0092,-0.0736 0,-0.0644 -0.0092,-0.16557 l -0.04599,0.28515 q -0.07359,0.50591 -0.137976,0.88305 -0.05519,0.37713 -0.101182,0.63468 l -0.239158,1.29698 -0.09198,0.48751 -1.19579,6.19971 h -1.287774 l -1.122203,-5.35346 q -0.229959,-1.05781 -0.413927,-2.14322 -0.174769,-1.09461 -0.321943,-2.2904 l -0.551904,9.78708 h -1.802883 z"
         style="font-style:normal;font-variant:normal;font-weight:500;font-stretch:condensed;font-family:Futura;-inkscape-font-specification:'Futura Medium Condensed';fill:#000000;fill-opacity:1;stroke-width:0.47095734"
         id="path892"
         inkscape:connector-curvature="0" />
      <path
         d="m 69.461204,120.13037 h 1.913264 v 14.2023 h -1.913264 z"
         style="font-style:normal;font-variant:normal;font-weight:500;font-stretch:condensed;font-family:Futura;-inkscape-font-specification:'Futura Medium Condensed';fill:#000000;fill-opacity:1;stroke-width:0.47095734"
         id="path894"
         inkscape:connector-curvature="0" />
      <path
         d="m 73.232546,120.13037 h 6.254902 l -4.268051,12.5282 h 4.038091 v 1.6741 h -6.530854 l 4.304845,-12.58339 h -3.798933 z"
         style="font-style:normal;font-variant:normal;font-weight:500;font-stretch:condensed;font-family:Futura;-inkscape-font-specification:'Futura Medium Condensed';fill:#000000;fill-opacity:1;stroke-width:0.47095734"
         id="path896"
         inkscape:connector-curvature="0" />
      <path
         d="m 82.706879,120.13037 h 1.490139 l 3.044665,14.2023 h -1.894867 l -0.533506,-2.76871 h -2.814706 l -0.542705,2.76871 h -1.839677 z m 1.830479,9.95265 -0.423126,-2.2628 q -0.423125,-2.3088 -0.689878,-4.93034 -0.128778,1.27858 -0.331142,2.59395 -0.202365,1.30617 -0.478316,2.77791 l -0.349539,1.82128 z"
         style="font-style:normal;font-variant:normal;font-weight:500;font-stretch:condensed;font-family:Futura;-inkscape-font-specification:'Futura Medium Condensed';fill:#000000;fill-opacity:1;stroke-width:0.47095734"
         id="path898"
         inkscape:connector-curvature="0" />
      <path
         d="m 88.373085,120.13037 h 2.593944 q 3.044666,0 3.044666,3.78053 0,1.44415 -0.395531,2.14323 -0.39553,0.69907 -1.398154,1.05781 1.149798,0.45992 1.572924,1.17739 0.432324,0.70828 0.432324,2.13403 0,3.90931 -3.348213,3.90931 h -2.50196 z m 1.802883,6.2549 q 1.113005,0 1.545329,-0.51511 0.432324,-0.54271 0.432324,-1.90407 0,-2.29959 -1.655709,-2.29959 h -0.147175 -0.08279 q -0.07359,0 -0.09198,0.009 z m 0,6.31009 q 1.177393,0 1.628114,-0.50591 0.450721,-0.50591 0.450721,-1.83048 0,-1.36136 -0.469117,-1.90407 -0.45992,-0.5519 -1.609718,-0.5519 z"
         style="font-style:normal;font-variant:normal;font-weight:500;font-stretch:condensed;font-family:Futura;-inkscape-font-specification:'Futura Medium Condensed';fill:#000000;fill-opacity:1;stroke-width:0.47095734"
         id="path900"
         inkscape:connector-curvature="0" />
      <path
         d="m 96.136528,120.13037 h 1.913264 v 12.58339 h 3.127448 v 1.61891 h -5.040712 z"
         style="font-style:normal;font-variant:normal;font-weight:500;font-stretch:condensed;font-family:Futura;-inkscape-font-specification:'Futura Medium Condensed';fill:#000000;fill-opacity:1;stroke-width:0.47095734"
         id="path902"
         inkscape:connector-curvature="0" />
      <path
         d="m 102.39143,120.13037 h 5.0867 v 1.61891 h -3.17344 v 4.49801 h 2.81471 v 1.61892 h -2.81471 v 4.84755 h 3.17344 v 1.61891 h -5.0867 z"
         style="font-style:normal;font-variant:normal;font-weight:500;font-stretch:condensed;font-family:Futura;-inkscape-font-specification:'Futura Medium Condensed';fill:#000000;fill-opacity:1;stroke-width:0.47095734"
         id="path904"
         inkscape:connector-curvature="0" />
      <path
         d="m 118.70936,120.36032 v 1.7201 q -0.73587,-0.35873 -1.23258,-0.35873 -0.68068,0 -1.1682,0.34034 -0.48751,0.33114 -0.80946,1.03022 -0.31274,0.69907 -0.46911,1.77528 -0.14718,1.06702 -0.14718,2.52956 0,5.26148 2.69513,5.26148 0.46912,0 1.1314,-0.29435 v 1.75689 q -0.68988,0.38633 -1.54533,0.38633 -4.31404,0 -4.31404,-7.04596 0,-3.80813 1.04861,-5.66621 1.05782,-1.85807 3.22864,-1.85807 0.80026,0 1.58212,0.42312 z"
         style="font-style:normal;font-variant:normal;font-weight:500;font-stretch:condensed;font-family:Futura;-inkscape-font-specification:'Futura Medium Condensed';fill:#000000;fill-opacity:1;stroke-width:0.47095734"
         id="path906"
         inkscape:connector-curvature="0" />
      <path
         d="m 122.84863,120.13037 h 1.49014 l 3.04467,14.2023 h -1.89487 l -0.53351,-2.76871 h -2.8147 l -0.54271,2.76871 h -1.83967 z m 1.83048,9.95265 -0.42312,-2.2628 q -0.42313,-2.3088 -0.68988,-4.93034 -0.12878,1.27858 -0.33114,2.59395 -0.20237,1.30617 -0.47832,2.77791 l -0.34954,1.82128 z"
         style="font-style:normal;font-variant:normal;font-weight:500;font-stretch:condensed;font-family:Futura;-inkscape-font-specification:'Futura Medium Condensed';fill:#000000;fill-opacity:1;stroke-width:0.47095734"
         id="path908"
         inkscape:connector-curvature="0" />
      <path
         d="m 128.51484,120.13037 h 2.52036 q 1.56372,0 2.32719,0.74506 0.96583,0.96583 0.96583,2.95269 0,1.52693 -0.51511,2.45596 -0.50591,0.91984 -1.45335,1.1406 l 2.61235,6.90799 h -1.94086 l -2.60315,-6.95398 v 6.95398 h -1.91326 z m 1.91326,6.29169 q 1.11301,0 1.57293,-0.51511 0.45992,-0.51511 0.45992,-1.73849 0,-0.66229 -0.10119,-1.13141 -0.092,-0.46911 -0.30354,-0.76346 -0.20237,-0.29435 -0.53351,-0.43233 -0.32194,-0.13797 -0.77266,-0.13797 h -0.32195 z"
         style="font-style:normal;font-variant:normal;font-weight:500;font-stretch:condensed;font-family:Futura;-inkscape-font-specification:'Futura Medium Condensed';fill:#000000;fill-opacity:1;stroke-width:0.47095734"
         id="path910"
         inkscape:connector-curvature="0" />
      <path
         d="m 136.46224,120.13037 h 2.35479 q 1.07621,0 1.81208,0.23915 0.68068,0.22996 1.21419,0.81866 0.80026,0.88304 1.1406,2.2996 0.34034,1.37056 0.34034,3.92771 0,2.34558 -0.37714,3.82652 -0.36793,1.41656 -1.21418,2.16163 -1.03942,0.92903 -3.72535,0.92903 h -1.54533 z m 1.91327,12.5282 q 1.74769,0 2.33639,-1.05782 0.60709,-1.05781 0.60709,-4.11168 0,-3.28382 -0.5795,-4.5164 -0.5795,-1.23259 -2.12483,-1.23259 h -0.23915 z"
         style="font-style:normal;font-variant:normal;font-weight:500;font-stretch:condensed;font-family:Futura;-inkscape-font-specification:'Futura Medium Condensed';fill:#000000;fill-opacity:1;stroke-width:0.47095734"
         id="path912"
         inkscape:connector-curvature="0" />
      <path
         d="m 152.52263,126.86358 h 3.47699 v 0.55191 q 0,4.14847 -0.72668,5.60181 -0.71747,1.49014 -2.68592,1.49014 -2.03285,0 -2.8975,-1.65571 -0.85545,-1.65571 -0.85545,-5.56502 0,-4.47042 0.93824,-5.95136 0.88304,-1.38895 2.71352,-1.38895 1.39816,0 2.18002,0.67148 0.79106,0.68068 1.23258,2.23521 l -1.78448,0.74507 q -0.11958,-0.56111 -0.26676,-0.93824 -0.14717,-0.38633 -0.32194,-0.59789 -0.34954,-0.43233 -1.04862,-0.43233 -0.95663,0 -1.30617,1.1774 -0.34953,1.23258 -0.34953,4.42442 0,3.22863 0.35873,4.36923 0.35874,1.1406 1.35217,1.1406 0.91064,0 1.27857,-0.80946 0.37713,-0.86464 0.37713,-2.77791 v -0.38633 -0.28515 h -1.6649 z"
         style="font-style:normal;font-variant:normal;font-weight:500;font-stretch:condensed;font-family:Futura;-inkscape-font-specification:'Futura Medium Condensed';fill:#000000;fill-opacity:1;stroke-width:0.47095734"
         id="path914"
         inkscape:connector-curvature="0" />
      <path
         d="m 159.93652,120.13037 h 1.49014 l 3.04467,14.2023 h -1.89487 l -0.53351,-2.76871 h -2.8147 l -0.54271,2.76871 h -1.83967 z m 1.83048,9.95265 -0.42312,-2.2628 q -0.42313,-2.3088 -0.68988,-4.93034 -0.12878,1.27858 -0.33114,2.59395 -0.20237,1.30617 -0.47832,2.77791 l -0.34954,1.82128 z"
         style="font-style:normal;font-variant:normal;font-weight:500;font-stretch:condensed;font-family:Futura;-inkscape-font-specification:'Futura Medium Condensed';fill:#000000;fill-opacity:1;stroke-width:0.47095734"
         id="path916"
         inkscape:connector-curvature="0" />
      <path
         d="m 166.27421,120.13037 h 1.63731 l 1.25098,5.79498 q 0.22996,1.08541 0.41393,2.18002 0.19317,1.0854 0.34954,2.28119 0.0184,-0.15637 0.0276,-0.23915 0.009,-0.092 0.0184,-0.12878 l 0.26676,-1.62811 0.23915,-1.54533 0.21157,-1.02102 1.113,-5.6938 h 1.65571 l 1.30617,14.2023 h -1.83048 l -0.32194,-4.81995 q -0.0184,-0.36794 -0.0368,-0.63469 -0.009,-0.26675 -0.009,-0.44152 l -0.0828,-1.90407 -0.046,-1.74769 q 0,-0.0184 -0.009,-0.0736 0,-0.0644 -0.009,-0.16557 l -0.046,0.28515 q -0.0736,0.50591 -0.13797,0.88305 -0.0552,0.37713 -0.10119,0.63468 l -0.23916,1.29698 -0.092,0.48751 -1.19579,6.19971 h -1.28777 l -1.12221,-5.35346 q -0.22996,-1.05781 -0.41392,-2.14322 -0.17477,-1.09461 -0.32195,-2.2904 l -0.5519,9.78708 h -1.80288 z"
         style="font-style:normal;font-variant:normal;font-weight:500;font-stretch:condensed;font-family:Futura;-inkscape-font-specification:'Futura Medium Condensed';fill:#000000;fill-opacity:1;stroke-width:0.47095734"
         id="path918"
         inkscape:connector-curvature="0" />
      <path
         d="m 176.34644,120.13037 h 5.08671 v 1.61891 h -3.17344 v 4.49801 h 2.8147 v 1.61892 h -2.8147 v 4.84755 h 3.17344 v 1.61891 h -5.08671 z"
         style="font-style:normal;font-variant:normal;font-weight:500;font-stretch:condensed;font-family:Futura;-inkscape-font-specification:'Futura Medium Condensed';fill:#000000;fill-opacity:1;stroke-width:0.47095734"
         id="path920"
         inkscape:connector-curvature="0" />
    </g>
    <g
       aria-label="™"
       style="font-style:normal;font-variant:normal;font-weight:normal;font-stretch:normal;font-size:10.58333302px;line-height:1.25;font-family:'Star Jedi Logo DoubleLine1';-inkscape-font-specification:'Star Jedi Logo DoubleLine1';letter-spacing:0px;word-spacing:0px;fill:#000000;fill-opacity:1;stroke:none;stroke-width:0.26458332"
       id="text1703">
      <path
         d="m 189.60958,115.55502 v 3.76721 h -0.82682 v -3.76721 h -1.00252 v -0.78031 h 2.83187 v 0.78031 z m 1.28158,3.76721 0.97668,-4.96093 1.51412,3.35896 1.51412,-3.35896 0.97669,4.96093 h -0.8475 l -0.42374,-2.4753 -1.21957,2.55798 -1.21956,-2.55798 -0.42892,2.4753 z"
         style="font-style:normal;font-variant:normal;font-weight:normal;font-stretch:normal;font-family:Futura;-inkscape-font-specification:Futura;fill:#000000;stroke-width:0.26458332;fill-opacity:1"
         id="path926"
         inkscape:connector-curvature="0" />
    </g>
    <text
       xml:space="preserve"
       style="font-style:normal;font-weight:normal;font-size:28.4727px;line-height:1.25;font-family:sans-serif;fill:#e19a1b;fill-opacity:1;stroke:none;stroke-width:0.71182"
       x="13.341955"
       y="158.72188"
       id="text3835"><tspan
         sodipodi:role="line"
         id="tspan3833"
         style="font-style:normal;font-variant:normal;font-weight:normal;font-stretch:normal;font-family:'Star Jedi';-inkscape-font-specification:'Star Jedi';fill:#e19a1b;fill-opacity:1;stroke-width:0.71182"
         x="13.341955"
         y="158.72188">holotable</tspan></text>
    <rect
       style="fill:#e19a1b;fill-opacity:1;stroke:none;stroke-width:0.8;stroke-linecap:square;stroke-linejoin:miter;stroke-miterlimit:4;stroke-dasharray:none;stroke-opacity:1;paint-order:markers fill stroke"
       id="rect7701"
       width="184.41597"
       height="122.40945"
       x="239.53394"
       y="228.29253" />
    <rect
       y="231.46753"
       x="243.81024"
       height="97.553375"
       width="176.4355"
       id="rect7703"
       style="fill:#ffffff;fill-opacity:1;stroke:none;stroke-width:0.69855;stroke-linecap:square;stroke-linejoin:miter;stroke-miterlimit:4;stroke-dasharray:none;stroke-opacity:1;paint-order:markers fill stroke" />
    <g
       aria-label="/"
       style="font-style:normal;font-variant:normal;font-weight:normal;font-stretch:normal;font-size:112.081px;line-height:1.25;font-family:'Star Jedi Logo DoubleLine1';-inkscape-font-specification:'Star Jedi Logo DoubleLine1';letter-spacing:0px;word-spacing:0px;fill:#e19a1b;fill-opacity:1;stroke:none;stroke-width:2.80203"
       id="g7707"
       transform="translate(225.63591,216.46911)">
      <path
         d="m 195.86887,65.749495 v 11.000144 h -9.96033 q -7.2787,-0.492544 -2.18908,3.611987 9.24887,7.278702 9.08469,14.06486 -0.16418,6.786154 -9.08469,8.154334 H 145.30104 L 132.22127,90.376682 V 102.58082 H 117.28078 V 65.749495 h 26.98045 q 4.92544,0.38309 8.09961,2.353265 3.2289,1.970175 4.6518,5.199073 1.14927,4.87071 0.10945,7.607064 -1.03981,2.681627 -3.61198,4.487621 -2.57218,1.751266 -7.33343,2.681627 l 3.11944,3.611987 h 21.17938 q 8.15434,0.328362 2.07963,-4.049804 -10.01505,-8.263789 -8.53742,-15.049947 1.53236,-6.840886 9.41305,-6.840886 z M 98.454663,24.211641 V 34.992876 H 85.374891 V 60.878785 H 71.912029 V 34.992876 H 55.712813 q -7.388156,-0.437817 -2.24381,3.666714 9.303604,7.278702 9.084695,14.119587 -0.164181,6.786158 -9.084695,8.099608 H 14.174958 V 49.933369 h 26.050091 q 8.099608,0.328362 2.024902,-3.995077 -9.905602,-8.154335 -8.42797,-14.940493 1.532358,-6.786158 9.35833,-6.786158 z M 68.792585,102.58082 82.419629,65.749495 h 20.522651 l 13.7365,36.831325 H 101.08156 L 98.454663,95.904117 H 86.250524 l -2.6269,6.676703 z M 92.872501,74.232193 86.852522,88.899051 h 11.43796 z m 39.348769,0.492544 v 6.676704 h 10.45288 q 0.76617,0 1.75126,-0.492544 0.98509,-0.547271 1.03982,-2.791081 -0.16419,-2.079629 -1.14927,-2.736354 -0.98509,-0.656725 -1.69654,-0.656725 z M 28.732362,65.749495 36.011064,81.620349 39.841959,65.749495 h 13.51759 L 42.906676,102.58082 H 29.498541 L 14.120231,65.749495 Z m 24.627187,0 5.746343,15.870854 5.965252,-15.870854 H 79.628548 L 66.001504,102.58082 H 52.593369 L 47.394297,86.983603 51.717736,71.441112 Z m 39.129863,-4.87071 13.627038,-36.667144 h 20.52266 l 13.79122,36.667144 h -15.65194 l -2.57217,-6.621977 h -12.25887 l -2.6269,6.621977 z m 23.806278,-28.184447 -5.96525,14.612131 h 11.38323 z m 26.59736,28.184447 V 24.211641 h 26.871 q 5.03489,0.437816 8.20906,2.298537 3.17417,1.860721 4.6518,5.089619 1.204,4.980164 0.16419,7.607064 -1.03982,2.6269 -3.61199,4.432894 -2.57217,1.805993 -7.33343,2.791081 l 3.06472,3.502533 h 20.96047 V 60.878785 H 170.96805 L 157.88827,48.7841 v 12.094685 z m 14.72159,-27.801357 v 6.731431 h 10.45287 q 0.76618,0 1.69654,-0.492544 0.98509,-0.547271 1.09454,-2.736354 -0.10945,-2.189083 -1.14927,-2.845808 -0.98508,-0.656725 -1.69654,-0.656725 z"
         style="fill:#e19a1b;fill-opacity:1;stroke-width:2.80203"
         id="path7705"
         inkscape:connector-curvature="0" />
    </g>
    <g
       aria-label="CUSTOMIZABLE CARD GAME"
       transform="matrix(1.0290606,0,0,0.97176006,225.63591,216.46911)"
       style="font-style:normal;font-variant:normal;font-weight:normal;font-stretch:normal;font-size:18.8383px;line-height:1.25;font-family:'Star Jedi Logo DoubleLine1';-inkscape-font-specification:'Star Jedi Logo DoubleLine1';letter-spacing:0px;word-spacing:0px;fill:#ffffff;fill-opacity:1;stroke:none;stroke-width:0.470957"
       id="g7749">
      <path
         d="m 25.842463,120.36032 v 1.7201 q -0.735871,-0.35873 -1.232584,-0.35873 -0.68068,0 -1.168195,0.34034 -0.487514,0.33114 -0.809458,1.03022 -0.312745,0.69907 -0.469117,1.77528 -0.147174,1.06702 -0.147174,2.52956 0,5.26148 2.695127,5.26148 0.469117,0 1.131401,-0.29435 v 1.75689 q -0.689879,0.38633 -1.545329,0.38633 -4.314043,0 -4.314043,-7.04596 0,-3.80813 1.048616,-5.66621 1.057815,-1.85807 3.228634,-1.85807 0.800259,0 1.582122,0.42312 z"
         style="font-style:normal;font-variant:normal;font-weight:500;font-stretch:condensed;font-family:Futura;-inkscape-font-specification:'Futura Medium Condensed';fill:#ffffff;fill-opacity:1;stroke-width:0.470957"
         id="path7709"
         inkscape:connector-curvature="0" />
      <path
         d="m 27.442982,120.13037 h 1.87647 v 10.03543 q 0,1.53613 0.275952,2.04205 0.28515,0.50591 1.122203,0.50591 0.837053,0 1.103806,-0.44153 0.275952,-0.45072 0.275952,-1.83047 v -10.31139 h 1.87647 v 10.31139 q 0,2.31799 -0.708275,3.13664 -0.846252,0.92904 -2.584747,0.92904 -1.913264,0 -2.695127,-1.19579 -0.542704,-0.81865 -0.542704,-3.14585 z"
         style="font-style:normal;font-variant:normal;font-weight:500;font-stretch:condensed;font-family:Futura;-inkscape-font-specification:'Futura Medium Condensed';fill:#ffffff;fill-opacity:1;stroke-width:0.470957"
         id="path7711"
         inkscape:connector-curvature="0" />
      <path
         d="m 40.90022,120.42471 v 1.86728 q -0.873847,-0.62549 -1.572924,-0.62549 -0.754268,0 -1.232584,0.5335 -0.478316,0.50591 -0.478316,1.35216 0,0.74507 0.34034,1.27858 0.17477,0.28515 0.5703,0.73587 0.404729,0.45072 1.039418,1.08541 1.168195,1.18659 1.59132,2.05124 0.423126,0.83705 0.423126,2.05124 0,1.64651 -0.929037,2.71352 -0.929037,1.03942 -2.382382,1.03942 -1.223385,0 -2.088033,-0.67148 v -1.89487 q 1.021021,0.74507 1.858074,0.74507 0.781862,0 1.223385,-0.51511 0.441522,-0.52431 0.441522,-1.41655 0,-0.77266 -0.34034,-1.38896 -0.174769,-0.29434 -0.487514,-0.67148 -0.312745,-0.38633 -0.781863,-0.85545 -0.726672,-0.71747 -1.204988,-1.26938 -0.478316,-0.5519 -0.708276,-0.96583 -0.441523,-0.80945 -0.441523,-2.04204 0,-1.6649 0.864649,-2.63993 0.873846,-0.98423 2.345588,-0.98423 1.021021,0 1.950058,0.48751 z"
         style="font-style:normal;font-variant:normal;font-weight:500;font-stretch:condensed;font-family:Futura;-inkscape-font-specification:'Futura Medium Condensed';fill:#ffffff;fill-opacity:1;stroke-width:0.470957"
         id="path7713"
         inkscape:connector-curvature="0" />
      <path
         d="m 42.279977,120.13037 h 6.227307 v 1.6741 H 46.36406 v 12.5282 h -1.876471 v -12.5282 h -2.207612 z"
         style="font-style:normal;font-variant:normal;font-weight:500;font-stretch:condensed;font-family:Futura;-inkscape-font-specification:'Futura Medium Condensed';fill:#ffffff;fill-opacity:1;stroke-width:0.470957"
         id="path7715"
         inkscape:connector-curvature="0" />
      <path
         d="m 56.813427,127.58106 q 0,3.76214 -0.837053,5.34426 -0.837053,1.58212 -2.805508,1.58212 -2.069636,0 -2.915888,-1.7017 -0.837053,-1.66491 -0.837053,-5.91456 0,-3.78974 0.827855,-5.36266 0.837053,-1.58212 2.833102,-1.58212 1.784487,0 2.649135,1.22338 0.5703,0.81866 0.827855,2.32719 0.257555,1.39816 0.257555,4.08409 z m -2.005248,0.20236 q 0,-3.68855 -0.331142,-4.89354 -0.331142,-1.21419 -1.352163,-1.21419 -1.02102,0 -1.361361,1.11301 -0.331142,1.1222 -0.331142,4.50721 0,3.11825 0.349539,4.32324 0.358737,1.1406 1.342964,1.1406 0.965831,0 1.324568,-1.06701 0.358737,-1.05782 0.358737,-3.90932 z"
         style="font-style:normal;font-variant:normal;font-weight:500;font-stretch:condensed;font-family:Futura;-inkscape-font-specification:'Futura Medium Condensed';fill:#ffffff;fill-opacity:1;stroke-width:0.470957"
         id="path7717"
         inkscape:connector-curvature="0" />
      <path
         d="m 59.388973,120.13037 h 1.637312 l 1.250981,5.79498 q 0.229959,1.08541 0.413927,2.18002 0.193166,1.0854 0.349539,2.28119 0.0184,-0.15637 0.02759,-0.23915 0.0092,-0.092 0.0184,-0.12878 l 0.266753,-1.62811 0.239158,-1.54533 0.211563,-1.02102 1.113004,-5.6938 h 1.65571 l 1.30617,14.2023 h -1.830478 l -0.321944,-4.81995 q -0.0184,-0.36794 -0.03679,-0.63469 -0.0092,-0.26675 -0.0092,-0.44152 l -0.08279,-1.90407 -0.04599,-1.74769 q 0,-0.0184 -0.0092,-0.0736 0,-0.0644 -0.0092,-0.16557 l -0.04599,0.28515 q -0.07359,0.50591 -0.137976,0.88305 -0.05519,0.37713 -0.101182,0.63468 l -0.239158,1.29698 -0.09198,0.48751 -1.19579,6.19971 h -1.287774 l -1.122203,-5.35346 q -0.229959,-1.05781 -0.413927,-2.14322 -0.174769,-1.09461 -0.321943,-2.2904 l -0.551904,9.78708 h -1.802883 z"
         style="font-style:normal;font-variant:normal;font-weight:500;font-stretch:condensed;font-family:Futura;-inkscape-font-specification:'Futura Medium Condensed';fill:#ffffff;fill-opacity:1;stroke-width:0.470957"
         id="path7719"
         inkscape:connector-curvature="0" />
      <path
         d="m 69.461204,120.13037 h 1.913264 v 14.2023 h -1.913264 z"
         style="font-style:normal;font-variant:normal;font-weight:500;font-stretch:condensed;font-family:Futura;-inkscape-font-specification:'Futura Medium Condensed';fill:#ffffff;fill-opacity:1;stroke-width:0.470957"
         id="path7721"
         inkscape:connector-curvature="0" />
      <path
         d="m 73.232546,120.13037 h 6.254902 l -4.268051,12.5282 h 4.038091 v 1.6741 h -6.530854 l 4.304845,-12.58339 h -3.798933 z"
         style="font-style:normal;font-variant:normal;font-weight:500;font-stretch:condensed;font-family:Futura;-inkscape-font-specification:'Futura Medium Condensed';fill:#ffffff;fill-opacity:1;stroke-width:0.470957"
         id="path7723"
         inkscape:connector-curvature="0" />
      <path
         d="m 82.706879,120.13037 h 1.490139 l 3.044665,14.2023 h -1.894867 l -0.533506,-2.76871 h -2.814706 l -0.542705,2.76871 h -1.839677 z m 1.830479,9.95265 -0.423126,-2.2628 q -0.423125,-2.3088 -0.689878,-4.93034 -0.128778,1.27858 -0.331142,2.59395 -0.202365,1.30617 -0.478316,2.77791 l -0.349539,1.82128 z"
         style="font-style:normal;font-variant:normal;font-weight:500;font-stretch:condensed;font-family:Futura;-inkscape-font-specification:'Futura Medium Condensed';fill:#ffffff;fill-opacity:1;stroke-width:0.470957"
         id="path7725"
         inkscape:connector-curvature="0" />
      <path
         d="m 88.373085,120.13037 h 2.593944 q 3.044666,0 3.044666,3.78053 0,1.44415 -0.395531,2.14323 -0.39553,0.69907 -1.398154,1.05781 1.149798,0.45992 1.572924,1.17739 0.432324,0.70828 0.432324,2.13403 0,3.90931 -3.348213,3.90931 h -2.50196 z m 1.802883,6.2549 q 1.113005,0 1.545329,-0.51511 0.432324,-0.54271 0.432324,-1.90407 0,-2.29959 -1.655709,-2.29959 h -0.147175 -0.08279 q -0.07359,0 -0.09198,0.009 z m 0,6.31009 q 1.177393,0 1.628114,-0.50591 0.450721,-0.50591 0.450721,-1.83048 0,-1.36136 -0.469117,-1.90407 -0.45992,-0.5519 -1.609718,-0.5519 z"
         style="font-style:normal;font-variant:normal;font-weight:500;font-stretch:condensed;font-family:Futura;-inkscape-font-specification:'Futura Medium Condensed';fill:#ffffff;fill-opacity:1;stroke-width:0.470957"
         id="path7727"
         inkscape:connector-curvature="0" />
      <path
         d="m 96.136528,120.13037 h 1.913264 v 12.58339 h 3.127448 v 1.61891 h -5.040712 z"
         style="font-style:normal;font-variant:normal;font-weight:500;font-stretch:condensed;font-family:Futura;-inkscape-font-specification:'Futura Medium Condensed';fill:#ffffff;fill-opacity:1;stroke-width:0.470957"
         id="path7729"
         inkscape:connector-curvature="0" />
      <path
         d="m 102.39143,120.13037 h 5.0867 v 1.61891 h -3.17344 v 4.49801 h 2.81471 v 1.61892 h -2.81471 v 4.84755 h 3.17344 v 1.61891 h -5.0867 z"
         style="font-style:normal;font-variant:normal;font-weight:500;font-stretch:condensed;font-family:Futura;-inkscape-font-specification:'Futura Medium Condensed';fill:#ffffff;fill-opacity:1;stroke-width:0.470957"
         id="path7731"
         inkscape:connector-curvature="0" />
      <path
         d="m 118.70936,120.36032 v 1.7201 q -0.73587,-0.35873 -1.23258,-0.35873 -0.68068,0 -1.1682,0.34034 -0.48751,0.33114 -0.80946,1.03022 -0.31274,0.69907 -0.46911,1.77528 -0.14718,1.06702 -0.14718,2.52956 0,5.26148 2.69513,5.26148 0.46912,0 1.1314,-0.29435 v 1.75689 q -0.68988,0.38633 -1.54533,0.38633 -4.31404,0 -4.31404,-7.04596 0,-3.80813 1.04861,-5.66621 1.05782,-1.85807 3.22864,-1.85807 0.80026,0 1.58212,0.42312 z"
         style="font-style:normal;font-variant:normal;font-weight:500;font-stretch:condensed;font-family:Futura;-inkscape-font-specification:'Futura Medium Condensed';fill:#ffffff;fill-opacity:1;stroke-width:0.470957"
         id="path7733"
         inkscape:connector-curvature="0" />
      <path
         d="m 122.84863,120.13037 h 1.49014 l 3.04467,14.2023 h -1.89487 l -0.53351,-2.76871 h -2.8147 l -0.54271,2.76871 h -1.83967 z m 1.83048,9.95265 -0.42312,-2.2628 q -0.42313,-2.3088 -0.68988,-4.93034 -0.12878,1.27858 -0.33114,2.59395 -0.20237,1.30617 -0.47832,2.77791 l -0.34954,1.82128 z"
         style="font-style:normal;font-variant:normal;font-weight:500;font-stretch:condensed;font-family:Futura;-inkscape-font-specification:'Futura Medium Condensed';fill:#ffffff;fill-opacity:1;stroke-width:0.470957"
         id="path7735"
         inkscape:connector-curvature="0" />
      <path
         d="m 128.51484,120.13037 h 2.52036 q 1.56372,0 2.32719,0.74506 0.96583,0.96583 0.96583,2.95269 0,1.52693 -0.51511,2.45596 -0.50591,0.91984 -1.45335,1.1406 l 2.61235,6.90799 h -1.94086 l -2.60315,-6.95398 v 6.95398 h -1.91326 z m 1.91326,6.29169 q 1.11301,0 1.57293,-0.51511 0.45992,-0.51511 0.45992,-1.73849 0,-0.66229 -0.10119,-1.13141 -0.092,-0.46911 -0.30354,-0.76346 -0.20237,-0.29435 -0.53351,-0.43233 -0.32194,-0.13797 -0.77266,-0.13797 h -0.32195 z"
         style="font-style:normal;font-variant:normal;font-weight:500;font-stretch:condensed;font-family:Futura;-inkscape-font-specification:'Futura Medium Condensed';fill:#ffffff;fill-opacity:1;stroke-width:0.470957"
         id="path7737"
         inkscape:connector-curvature="0" />
      <path
         d="m 136.46224,120.13037 h 2.35479 q 1.07621,0 1.81208,0.23915 0.68068,0.22996 1.21419,0.81866 0.80026,0.88304 1.1406,2.2996 0.34034,1.37056 0.34034,3.92771 0,2.34558 -0.37714,3.82652 -0.36793,1.41656 -1.21418,2.16163 -1.03942,0.92903 -3.72535,0.92903 h -1.54533 z m 1.91327,12.5282 q 1.74769,0 2.33639,-1.05782 0.60709,-1.05781 0.60709,-4.11168 0,-3.28382 -0.5795,-4.5164 -0.5795,-1.23259 -2.12483,-1.23259 h -0.23915 z"
         style="font-style:normal;font-variant:normal;font-weight:500;font-stretch:condensed;font-family:Futura;-inkscape-font-specification:'Futura Medium Condensed';fill:#ffffff;fill-opacity:1;stroke-width:0.470957"
         id="path7739"
         inkscape:connector-curvature="0" />
      <path
         d="m 152.52263,126.86358 h 3.47699 v 0.55191 q 0,4.14847 -0.72668,5.60181 -0.71747,1.49014 -2.68592,1.49014 -2.03285,0 -2.8975,-1.65571 -0.85545,-1.65571 -0.85545,-5.56502 0,-4.47042 0.93824,-5.95136 0.88304,-1.38895 2.71352,-1.38895 1.39816,0 2.18002,0.67148 0.79106,0.68068 1.23258,2.23521 l -1.78448,0.74507 q -0.11958,-0.56111 -0.26676,-0.93824 -0.14717,-0.38633 -0.32194,-0.59789 -0.34954,-0.43233 -1.04862,-0.43233 -0.95663,0 -1.30617,1.1774 -0.34953,1.23258 -0.34953,4.42442 0,3.22863 0.35873,4.36923 0.35874,1.1406 1.35217,1.1406 0.91064,0 1.27857,-0.80946 0.37713,-0.86464 0.37713,-2.77791 v -0.38633 -0.28515 h -1.6649 z"
         style="font-style:normal;font-variant:normal;font-weight:500;font-stretch:condensed;font-family:Futura;-inkscape-font-specification:'Futura Medium Condensed';fill:#ffffff;fill-opacity:1;stroke-width:0.470957"
         id="path7741"
         inkscape:connector-curvature="0" />
      <path
         d="m 159.93652,120.13037 h 1.49014 l 3.04467,14.2023 h -1.89487 l -0.53351,-2.76871 h -2.8147 l -0.54271,2.76871 h -1.83967 z m 1.83048,9.95265 -0.42312,-2.2628 q -0.42313,-2.3088 -0.68988,-4.93034 -0.12878,1.27858 -0.33114,2.59395 -0.20237,1.30617 -0.47832,2.77791 l -0.34954,1.82128 z"
         style="font-style:normal;font-variant:normal;font-weight:500;font-stretch:condensed;font-family:Futura;-inkscape-font-specification:'Futura Medium Condensed';fill:#ffffff;fill-opacity:1;stroke-width:0.470957"
         id="path7743"
         inkscape:connector-curvature="0" />
      <path
         d="m 166.27421,120.13037 h 1.63731 l 1.25098,5.79498 q 0.22996,1.08541 0.41393,2.18002 0.19317,1.0854 0.34954,2.28119 0.0184,-0.15637 0.0276,-0.23915 0.009,-0.092 0.0184,-0.12878 l 0.26676,-1.62811 0.23915,-1.54533 0.21157,-1.02102 1.113,-5.6938 h 1.65571 l 1.30617,14.2023 h -1.83048 l -0.32194,-4.81995 q -0.0184,-0.36794 -0.0368,-0.63469 -0.009,-0.26675 -0.009,-0.44152 l -0.0828,-1.90407 -0.046,-1.74769 q 0,-0.0184 -0.009,-0.0736 0,-0.0644 -0.009,-0.16557 l -0.046,0.28515 q -0.0736,0.50591 -0.13797,0.88305 -0.0552,0.37713 -0.10119,0.63468 l -0.23916,1.29698 -0.092,0.48751 -1.19579,6.19971 h -1.28777 l -1.12221,-5.35346 q -0.22996,-1.05781 -0.41392,-2.14322 -0.17477,-1.09461 -0.32195,-2.2904 l -0.5519,9.78708 h -1.80288 z"
         style="font-style:normal;font-variant:normal;font-weight:500;font-stretch:condensed;font-family:Futura;-inkscape-font-specification:'Futura Medium Condensed';fill:#ffffff;fill-opacity:1;stroke-width:0.470957"
         id="path7745"
         inkscape:connector-curvature="0" />
      <path
         d="m 176.34644,120.13037 h 5.08671 v 1.61891 h -3.17344 v 4.49801 h 2.8147 v 1.61892 h -2.8147 v 4.84755 h 3.17344 v 1.61891 h -5.08671 z"
         style="font-style:normal;font-variant:normal;font-weight:500;font-stretch:condensed;font-family:Futura;-inkscape-font-specification:'Futura Medium Condensed';fill:#ffffff;fill-opacity:1;stroke-width:0.470957"
         id="path7747"
         inkscape:connector-curvature="0" />
    </g>
    <g
       aria-label="™"
       style="font-style:normal;font-variant:normal;font-weight:normal;font-stretch:normal;font-size:10.5833px;line-height:1.25;font-family:'Star Jedi Logo DoubleLine1';-inkscape-font-specification:'Star Jedi Logo DoubleLine1';letter-spacing:0px;word-spacing:0px;fill:#e19a1b;fill-opacity:1;stroke:none;stroke-width:0.264583"
       id="g7753"
       transform="translate(225.63591,216.46911)">
      <path
         d="m 189.60958,115.55502 v 3.76721 h -0.82682 v -3.76721 h -1.00252 v -0.78031 h 2.83187 v 0.78031 z m 1.28158,3.76721 0.97668,-4.96093 1.51412,3.35896 1.51412,-3.35896 0.97669,4.96093 h -0.8475 l -0.42374,-2.4753 -1.21957,2.55798 -1.21956,-2.55798 -0.42892,2.4753 z"
         style="font-style:normal;font-variant:normal;font-weight:normal;font-stretch:normal;font-family:Futura;-inkscape-font-specification:Futura;fill:#e19a1b;fill-opacity:1;stroke-width:0.264583"
         id="path7751"
         inkscape:connector-curvature="0" />
    </g>
    <text
       xml:space="preserve"
       style="font-style:normal;font-weight:normal;font-size:28.4727px;line-height:1.25;font-family:sans-serif;fill:#e19a1b;fill-opacity:1;stroke:none;stroke-width:0.71182"
       x="238.97787"
       y="372.27524"
       id="text7757"><tspan
         sodipodi:role="line"
         id="tspan7755"
         style="font-style:normal;font-variant:normal;font-weight:normal;font-stretch:normal;font-family:'Star Jedi';-inkscape-font-specification:'Star Jedi';fill:#e19a1b;fill-opacity:1;stroke-width:0.71182"
         x="238.97787"
         y="372.27524">holotable</tspan></text>
    <rect
       style="fill:#e19a1b;fill-opacity:1;stroke:none;stroke-width:0.627842;stroke-linecap:square;stroke-linejoin:miter;stroke-miterlimit:4;stroke-dasharray:none;stroke-opacity:1;paint-order:markers fill stroke"
       id="rect7986"
       width="184.41597"
       height="75.393906"
       x="727.4234"
       y="123.66022"
       inkscape:export-filename="/home/devon/code/holotable_exe/swccg_holotable.png"
       inkscape:export-xdpi="119.93545"
       inkscape:export-ydpi="119.93545" />
    <rect
       y="126.83523"
       x="731.69971"
       height="43.251965"
       width="176.4355"
       id="rect7988"
       style="fill:#000000;fill-opacity:1;stroke:none;stroke-width:0.465135;stroke-linecap:square;stroke-linejoin:miter;stroke-miterlimit:4;stroke-dasharray:none;stroke-opacity:1;paint-order:markers fill stroke"
       inkscape:export-filename="/home/devon/code/holotable_exe/swccg_holotable.png"
       inkscape:export-xdpi="119.93545"
       inkscape:export-ydpi="119.93545" />
    <text
       xml:space="preserve"
       style="font-style:normal;font-weight:normal;font-size:45.8648px;line-height:1.25;font-family:sans-serif;fill:#e19a1b;fill-opacity:1;stroke:none;stroke-width:1.14662"
       x="742.37537"
       y="164.04041"
       id="text8042"
       inkscape:export-filename="/home/devon/code/holotable_exe/swccg_holotable.png"
       inkscape:export-xdpi="119.93545"
       inkscape:export-ydpi="119.93545"><tspan
         sodipodi:role="line"
         id="tspan8040"
         style="font-style:normal;font-variant:normal;font-weight:normal;font-stretch:normal;font-family:'Star Jedi';-inkscape-font-specification:'Star Jedi';fill:#e19a1b;fill-opacity:1;stroke-width:1.14662"
         x="742.37537"
         y="164.04041">SWCCg</tspan></text>
    <rect
       style="fill:#e19a1b;fill-opacity:1;stroke:none;stroke-width:2.53567"
       id="rect11438"
       width="11.975284"
       height="9.6141186"
       x="898.24579"
       y="131.7007"
       inkscape:export-filename="/home/devon/code/holotable_exe/swccg_holotable.png"
       inkscape:export-xdpi="119.93545"
       inkscape:export-ydpi="119.93545" />
    <text
       xml:space="preserve"
       style="font-style:normal;font-weight:normal;font-size:26.9547px;line-height:1.25;font-family:sans-serif;fill:#000000;fill-opacity:1;stroke:none;stroke-width:0.673871"
       x="731.43896"
       y="193.75841"
       id="text13999"
       inkscape:export-filename="/home/devon/code/holotable_exe/swccg_holotable.png"
       inkscape:export-xdpi="119.93545"
       inkscape:export-ydpi="119.93545"><tspan
         sodipodi:role="line"
         id="tspan13997"
         style="font-style:normal;font-variant:normal;font-weight:normal;font-stretch:normal;font-family:'Star Jedi';-inkscape-font-specification:'Star Jedi';fill:#000000;fill-opacity:1;stroke-width:0.673871"
         x="731.43896"
         y="193.75841">holotable</tspan></text>
    <rect
       style="fill:#e19a1b;fill-opacity:1;stroke:none;stroke-width:0.627842;stroke-linecap:square;stroke-linejoin:miter;stroke-miterlimit:4;stroke-dasharray:none;stroke-opacity:1;paint-order:markers fill stroke"
       id="rect14249"
       width="184.41597"
       height="75.393906"
       x="724.15631"
       y="361.31534" />
    <rect
       y="364.49036"
       x="728.43262"
       height="43.251965"
       width="176.4355"
       id="rect14251"
       style="fill:#ffffff;fill-opacity:1;stroke:none;stroke-width:0.465135;stroke-linecap:square;stroke-linejoin:miter;stroke-miterlimit:4;stroke-dasharray:none;stroke-opacity:1;paint-order:markers fill stroke" />
    <text
       xml:space="preserve"
       style="font-style:normal;font-weight:normal;font-size:45.8648px;line-height:1.25;font-family:sans-serif;fill:#e19a1b;fill-opacity:1;stroke:none;stroke-width:1.14662"
       x="739.10828"
       y="401.69553"
       id="text14255"><tspan
         sodipodi:role="line"
         id="tspan14253"
         style="font-style:normal;font-variant:normal;font-weight:normal;font-stretch:normal;font-family:'Star Jedi';-inkscape-font-specification:'Star Jedi';fill:#e19a1b;fill-opacity:1;stroke-width:1.14662"
         x="739.10828"
         y="401.69553">SWCCg</tspan></text>
    <rect
       style="fill:#e19a1b;fill-opacity:1;stroke:none;stroke-width:2.53567"
       id="rect14257"
       width="11.975284"
       height="9.6141186"
       x="894.9787"
       y="369.3558" />
    <text
       xml:space="preserve"
       style="font-style:normal;font-weight:normal;font-size:26.9547px;line-height:1.25;font-family:sans-serif;fill:#ffffff;fill-opacity:1;stroke:none;stroke-width:0.673871"
       x="728.17188"
       y="431.41351"
       id="text14261"><tspan
         sodipodi:role="line"
         id="tspan14259"
         style="font-style:normal;font-variant:normal;font-weight:normal;font-stretch:normal;font-family:'Star Jedi';-inkscape-font-specification:'Star Jedi';fill:#ffffff;fill-opacity:1;stroke-width:0.673871"
         x="728.17188"
         y="431.41351">holotable</tspan></text>
  </g>
</svg>
